<?xml version="1.0" encoding="UTF-8" standalone="no" ?>
<!DOCTYPE svg PUBLIC "-//W3C//DTD SVG 1.1//EN" "http://www.w3.org/Graphics/SVG/1.1/DTD/svg11.dtd">
<svg xmlns="http://www.w3.org/2000/svg" xmlns:xlink="http://www.w3.org/1999/xlink" version="1.1" width="600" height="80" viewBox="0 0 600 80" xml:space="preserve">
<desc>Created with Fabric.js 5.2.4</desc>
<defs>
</defs>
<rect x="0" y="0" width="100%" height="100%" fill="transparent"></rect>
<g transform="matrix(Infinity NaN NaN Infinity 0 0)" id="f7f535bb-3d6a-4a0d-9945-1bebdcca990f"  >
</g>
<g transform="matrix(1 0 0 1 300 40)" id="4be83f33-dc18-44a1-8bcd-698744aee4bc"  >
<rect style="stroke: none; stroke-width: 1; stroke-dasharray: none; stroke-linecap: butt; stroke-dashoffset: 0; stroke-linejoin: miter; stroke-miterlimit: 4; fill: rgb(255,255,255); fill-rule: nonzero; opacity: 1; visibility: hidden;" vector-effect="non-scaling-stroke"  x="-300" y="-40" rx="0" ry="0" width="600" height="80" />
</g>
<g transform="matrix(0.87 0 0 0.87 300 40)"  >
<g style="" vector-effect="non-scaling-stroke"   >
		<g transform="matrix(1 0 0 1 -280.55 13.45)"  >
<path style="stroke: none; stroke-width: 1; stroke-dasharray: none; stroke-linecap: butt; stroke-dashoffset: 0; stroke-linejoin: miter; stroke-miterlimit: 4; fill: rgb(34,34,34); fill-rule: nonzero; opacity: 1;" vector-effect="non-scaling-stroke"  transform=" translate(-259.5, -553.45)" d="M 254.5 538.8 C 256.9 537.5 259.6 536.8 262.6 536.8 C 265.40000000000003 536.8 267.90000000000003 537.5 270.3 538.8 C 272.7 540.0999999999999 274.6 542.1999999999999 276.2 545.0999999999999 L 289.8 537.8 C 287.6 532.9 284.1 529.0999999999999 279.40000000000003 526.4 C 274.70000000000005 523.8 269.20000000000005 522.4 262.8 522.4 C 256.3 522.4 250.5 523.6999999999999 245.4 526.4 C 240.3 529.1 236.3 532.6999999999999 233.5 537.4 C 230.6 542.1 229.2 547.4 229.2 553.5 C 229.2 559.5 230.6 564.8 233.5 569.5 C 236.4 574.2 240.3 577.9 245.4 580.5 C 250.5 583.2 256.3 584.5 262.8 584.5 C 269.1 584.5 274.7 583.2 279.40000000000003 580.5 C 284.1 577.9 287.6 574.1 289.8 569.2 L 276.2 561.8000000000001 C 274.59999999999997 564.7 272.7 566.8000000000001 270.3 568.1 C 267.90000000000003 569.4 265.40000000000003 570.1 262.6 570.1 C 259.6 570.1 256.90000000000003 569.4 254.50000000000003 568.1 C 252.10000000000002 566.8000000000001 250.20000000000002 564.9 248.80000000000004 562.4 C 247.40000000000003 559.9 246.70000000000005 557 246.70000000000005 553.4 C 246.70000000000005 549.9 247.40000000000003 546.9 248.80000000000004 544.4 C 250.2 542.1 252.1 540.2 254.5 538.8 z" stroke-linecap="round" />
</g>
		<g transform="matrix(1 0 0 1 -210.15 13.9)"  >
<path style="stroke: none; stroke-width: 1; stroke-dasharray: none; stroke-linecap: butt; stroke-dashoffset: 0; stroke-linejoin: miter; stroke-miterlimit: 4; fill: rgb(34,34,34); fill-rule: nonzero; opacity: 1;" vector-effect="non-scaling-stroke"  transform=" translate(-329.9, -553.9)" d="M 343 553.2 C 343 556.9000000000001 342.4 559.9000000000001 341.2 562.3000000000001 C 340 564.7 338.4 566.5000000000001 336.3 567.7 C 334.2 568.9000000000001 331.8 569.4000000000001 329.1 569.4000000000001 C 325.20000000000005 569.4000000000001 322.20000000000005 568.2 320.1 565.9000000000001 C 318 563.5000000000001 316.90000000000003 559.9000000000001 316.90000000000003 554.9000000000001 L 316.90000000000003 523.4000000000001 L 299.40000000000003 523.4000000000001 L 299.40000000000003 557.4000000000001 C 299.40000000000003 563.6000000000001 300.50000000000006 568.7 302.6 572.7 C 304.8 576.7 307.8 579.7 311.70000000000005 581.6 C 315.6 583.5 320.1 584.5 325.1 584.5 C 329.70000000000005 584.5 334 583.4 337.90000000000003 581.3 C 340.20000000000005 580.0999999999999 342.1 578.5 343.8 576.5 L 343.8 583.6 L 360.40000000000003 583.6 L 360.40000000000003 523.3000000000001 L 343 523.3000000000001 L 343 553.2 z" stroke-linecap="round" />
</g>
		<g transform="matrix(1 0 0 1 -154.6 2.05)"  >
<rect style="stroke: none; stroke-width: 1; stroke-dasharray: none; stroke-linecap: butt; stroke-dashoffset: 0; stroke-linejoin: miter; stroke-miterlimit: 4; fill: rgb(34,34,34); fill-rule: nonzero; opacity: 1;" vector-effect="non-scaling-stroke"  x="-8.75" y="-41.55" rx="0" ry="0" width="17.5" height="83.1" />
</g>
		<g transform="matrix(1 0 0 1 -120.8 -34.8)"  >
<path style="stroke: none; stroke-width: 1; stroke-dasharray: none; stroke-linecap: butt; stroke-dashoffset: 0; stroke-linejoin: miter; stroke-miterlimit: 4; fill: rgb(251,199,39); fill-rule: nonzero; opacity: 1;" vector-effect="non-scaling-stroke"  transform=" translate(-419.25, -505.2)" d="M 427 498.1 C 425 496.3 422.4 495.5 419.2 495.5 C 416 495.5 413.4 496.4 411.4 498.3 C 409.4 500.2 408.4 502.5 408.4 505.2 C 408.4 508 409.4 510.3 411.4 512.1 C 413.4 514 416 514.9 419.2 514.9 C 422.5 514.9 425.09999999999997 513.9 427.09999999999997 512 C 429.09999999999997 510.1 430.09999999999997 507.7 430.09999999999997 504.8 C 430 502.1 429 499.9 427 498.1 z" stroke-linecap="round" />
</g>
		<g transform="matrix(1 0 0 1 -120.9 13.55)"  >
<rect style="stroke: none; stroke-width: 1; stroke-dasharray: none; stroke-linecap: butt; stroke-dashoffset: 0; stroke-linejoin: miter; stroke-miterlimit: 4; fill: rgb(34,34,34); fill-rule: nonzero; opacity: 1;" vector-effect="non-scaling-stroke"  x="-8.75" y="-30.15" rx="0" ry="0" width="17.5" height="60.3" />
</g>
		<g transform="matrix(1 0 0 1 -65.15 13)"  >
<path style="stroke: none; stroke-width: 1; stroke-dasharray: none; stroke-linecap: butt; stroke-dashoffset: 0; stroke-linejoin: miter; stroke-miterlimit: 4; fill: rgb(34,34,34); fill-rule: nonzero; opacity: 1;" vector-effect="non-scaling-stroke"  transform=" translate(-474.9, -553)" d="M 493.6 525.3 C 489.8 523.4 485.6 522.4 480.8 522.4 C 475.6 522.4 471.1 523.5 467 525.6 C 464.6 526.9 462.6 528.5 460.8 530.4 L 460.8 523.1999999999999 L 444.1 523.1999999999999 L 444.1 583.4999999999999 L 461.6 583.4999999999999 L 461.6 553.6999999999999 C 461.6 549.9999999999999 462.20000000000005 546.9 463.40000000000003 544.4999999999999 C 464.6 542.0999999999999 466.3 540.2999999999998 468.6 539.1999999999999 C 470.8 537.9999999999999 473.3 537.4999999999999 476 537.4999999999999 C 479.9 537.4999999999999 482.9 538.6999999999999 485 540.9999999999999 C 487.1 543.2999999999998 488.2 546.8999999999999 488.2 551.7999999999998 L 488.2 583.5999999999998 L 505.7 583.5999999999998 L 505.7 549.0999999999998 C 505.7 542.9999999999998 504.59999999999997 537.9999999999998 502.5 533.9999999999998 C 500.3 530.1 497.3 527.2 493.6 525.3 z" stroke-linecap="round" />
</g>
		<g transform="matrix(1 0 0 1 6.3 13.5)"  >
<path style="stroke: none; stroke-width: 1; stroke-dasharray: none; stroke-linecap: butt; stroke-dashoffset: 0; stroke-linejoin: miter; stroke-miterlimit: 4; fill: rgb(34,34,34); fill-rule: nonzero; opacity: 1;" vector-effect="non-scaling-stroke"  transform=" translate(-546.35, -553.5)" d="M 567.2 529 C 562.1 524.7 555 522.5 545.8000000000001 522.5 C 541.0000000000001 522.5 536.3000000000001 523.1 531.7 524.4 C 527.1 525.6999999999999 523.1 527.5 519.8000000000001 529.8 L 526.1 542 C 528.3000000000001 540.3 530.9 538.9 534 537.9 C 537.1 536.9 540.3 536.4 543.5 536.4 C 548.2 536.4 551.7 537.4 554 539.5 C 556.3 541.6 557.4 544.5 557.4 548.2 L 543.5 548.2 C 537.4 548.2 532.4 549 528.6 550.5 C 524.8000000000001 552 522 554.1 520.3000000000001 556.8 C 518.5000000000001 559.5 517.7 562.5999999999999 517.7 566.1999999999999 C 517.7 569.5999999999999 518.6 572.6999999999999 520.4000000000001 575.4999999999999 C 522.2 578.2999999999998 524.8000000000001 580.3999999999999 528.1000000000001 582.0999999999999 C 531.5000000000001 583.6999999999999 535.5000000000001 584.4999999999999 540.2000000000002 584.4999999999999 C 545.5000000000001 584.4999999999999 549.8000000000002 583.4999999999999 553.2000000000002 581.4999999999999 C 555.5000000000001 580.0999999999999 557.3000000000002 578.2999999999998 558.6000000000001 576.0999999999999 L 558.6000000000001 583.5999999999999 L 575.0000000000001 583.5999999999999 L 575.0000000000001 549.1999999999999 C 574.8 540.1 572.3 533.3 567.2 529 z M 552.3 570.7 C 550 572.1 547.4 572.8000000000001 544.5 572.8000000000001 C 541.4 572.8000000000001 539 572.1 537.3 570.8000000000001 C 535.5 569.5000000000001 534.6999999999999 567.7 534.6999999999999 565.5000000000001 C 534.6999999999999 563.5000000000001 535.4999999999999 561.8000000000001 536.9999999999999 560.5000000000001 C 538.4999999999999 559.2000000000002 541.2999999999998 558.5000000000001 545.4999999999999 558.5000000000001 L 557.4999999999999 558.5000000000001 L 557.4999999999999 564.7000000000002 C 556.3 567.3 554.6 569.3 552.3 570.7 z" stroke-linecap="round" />
</g>
		<g transform="matrix(1 0 0 1 69.25 13.2)"  >
<path style="stroke: none; stroke-width: 1; stroke-dasharray: none; stroke-linecap: butt; stroke-dashoffset: 0; stroke-linejoin: miter; stroke-miterlimit: 4; fill: rgb(34,34,34); fill-rule: nonzero; opacity: 1;" vector-effect="non-scaling-stroke"  transform=" translate(-609.3, -553.2)" d="M 607.3 531.3 L 607.3 523.4 L 590.5999999999999 523.4 L 590.5999999999999 583.6999999999999 L 608.0999999999999 583.6999999999999 L 608.0999999999999 555.3 C 608.0999999999999 549.5999999999999 609.5999999999999 545.3 612.4999999999999 542.5999999999999 C 615.3999999999999 539.8999999999999 619.2999999999998 538.4999999999999 624.0999999999999 538.4999999999999 C 624.8 538.4999999999999 625.3999999999999 538.4999999999999 625.9999999999999 538.5999999999999 C 626.5999999999999 538.5999999999999 627.2999999999998 538.6999999999999 627.9999999999999 538.8 L 627.9999999999999 522.6999999999999 C 622.2999999999998 522.6999999999999 617.4999999999999 523.8 613.5999999999999 525.9999999999999 C 611 527.2 609 529 607.3 531.3 z" stroke-linecap="round" />
</g>
		<g transform="matrix(1 0 0 1 107.1 13.55)"  >
<rect style="stroke: none; stroke-width: 1; stroke-dasharray: none; stroke-linecap: butt; stroke-dashoffset: 0; stroke-linejoin: miter; stroke-miterlimit: 4; fill: rgb(34,34,34); fill-rule: nonzero; opacity: 1;" vector-effect="non-scaling-stroke"  x="-8.75" y="-30.15" rx="0" ry="0" width="17.5" height="60.3" />
</g>
		<g transform="matrix(1 0 0 1 107.2 -34.8)"  >
<path style="stroke: none; stroke-width: 1; stroke-dasharray: none; stroke-linecap: butt; stroke-dashoffset: 0; stroke-linejoin: miter; stroke-miterlimit: 4; fill: rgb(251,199,39); fill-rule: nonzero; opacity: 1;" vector-effect="non-scaling-stroke"  transform=" translate(-647.25, -505.2)" d="M 655 498.1 C 653 496.3 650.4 495.5 647.2 495.5 C 644 495.5 641.4000000000001 496.4 639.4000000000001 498.3 C 637.4000000000001 500.2 636.4000000000001 502.5 636.4000000000001 505.2 C 636.4000000000001 508 637.4000000000001 510.3 639.4000000000001 512.1 C 641.4000000000001 514 644.0000000000001 514.9 647.2 514.9 C 650.5 514.9 653.1 513.9 655.1 512 C 657.1 510.1 658.1 507.7 658.1 504.8 C 658 502.1 657 499.9 655 498.1 z" stroke-linecap="round" />
</g>
		<g transform="matrix(1 0 0 1 162.25 13.9)"  >
<path style="stroke: none; stroke-width: 1; stroke-dasharray: none; stroke-linecap: butt; stroke-dashoffset: 0; stroke-linejoin: miter; stroke-miterlimit: 4; fill: rgb(34,34,34); fill-rule: nonzero; opacity: 1;" vector-effect="non-scaling-stroke"  transform=" translate(-702.3, -553.9)" d="M 715.4 553.2 C 715.4 556.9000000000001 714.8 559.9000000000001 713.6 562.3000000000001 C 712.4 564.7 710.8000000000001 566.5000000000001 708.7 567.7 C 706.6 568.9000000000001 704.2 569.4000000000001 701.5 569.4000000000001 C 697.6 569.4000000000001 694.6 568.2 692.5 565.9000000000001 C 690.4 563.5000000000001 689.3 559.9000000000001 689.3 554.9000000000001 L 689.3 523.4000000000001 L 671.8 523.4000000000001 L 671.8 557.4000000000001 C 671.8 563.6000000000001 672.9 568.7 675 572.7 C 677.2 576.7 680.2 579.7 684.1 581.6 C 688 583.5 692.5 584.5 697.5 584.5 C 702.1 584.5 706.4 583.4 710.3 581.3 C 712.5999999999999 580.0999999999999 714.5 578.5 716.1999999999999 576.5 L 716.1999999999999 583.6 L 732.8 583.6 L 732.8 523.3000000000001 L 715.3 523.3000000000001 L 715.3 553.2 z" stroke-linecap="round" />
</g>
		<g transform="matrix(1 0 0 1 259.9 13.3)"  >
<path style="stroke: none; stroke-width: 1; stroke-dasharray: none; stroke-linecap: butt; stroke-dashoffset: 0; stroke-linejoin: miter; stroke-miterlimit: 4; fill: rgb(34,34,34); fill-rule: nonzero; opacity: 1;" vector-effect="non-scaling-stroke"  transform=" translate(-799.95, -553.3)" d="M 847.7 534.1 C 845.6 530.2 842.7 527.3000000000001 839 525.4 C 835.3 523.5 831.1 522.5 826.3 522.5 C 820.5 522.5 815.5 523.9 811 526.6 C 808.5 528.2 806.3 530.1 804.6 532.3000000000001 C 803.2 530.0000000000001 801.4 528.1 799.2 526.7 C 795.1 523.9000000000001 790.2 522.5 784.7 522.5 C 779.8000000000001 522.5 775.4000000000001 523.6 771.5 525.7 C 769.3 526.9000000000001 767.4 528.5 765.7 530.4000000000001 L 765.7 523.4000000000001 L 749 523.4000000000001 L 749 583.7 L 766.5 583.7 L 766.5 553.5 C 766.5 549.9 767.1 547 768.2 544.7 C 769.3000000000001 542.4000000000001 770.9000000000001 540.7 772.9000000000001 539.5 C 774.9000000000001 538.3 777.2 537.8 779.7 537.8 C 783.4000000000001 537.8 786.2 539 788.2 541.3 C 790.2 543.5999999999999 791.2 547.1999999999999 791.2 552.0999999999999 L 791.2 583.8999999999999 L 808.7 583.8999999999999 L 808.7 553.6999999999998 C 808.7 550.0999999999998 809.3000000000001 547.1999999999998 810.4000000000001 544.8999999999999 C 811.5000000000001 542.5999999999999 813.1000000000001 540.8999999999999 815.1000000000001 539.6999999999998 C 817.1000000000001 538.4999999999998 819.4000000000001 537.9999999999998 821.9000000000001 537.9999999999998 C 825.6000000000001 537.9999999999998 828.4000000000001 539.1999999999998 830.4000000000001 541.4999999999998 C 832.4000000000001 543.7999999999997 833.4000000000001 547.3999999999997 833.4000000000001 552.2999999999997 L 833.4000000000001 584.0999999999997 L 850.9000000000001 584.0999999999997 L 850.9000000000001 549.5999999999997 C 850.9 543 849.8 538 847.7 534.1 z" stroke-linecap="round" />
</g>
</g>
</g>
</svg>